<svg xmlns="http://www.w3.org/2000/svg" viewBox="0 0 1073.37 177.378"><defs><style>.a{fill:#1e1e8d;opacity:0.1;}</style></defs><path class="a" d="M-476.523-155.4V0h-35.964V-126.54h-31.08V-155.4Zm101.9,57.942a60.624,60.624,0,0,1,27.084,5.994,47.318,47.318,0,0,1,19.314,16.983,45.778,45.778,0,0,1,7.1,25.419q0,15.54-7.77,27.306a50.688,50.688,0,0,1-21.2,18.093,69.195,69.195,0,0,1-29.859,6.327q-32.634,0-51.06-19.98T-449.439-74.37q0-26.418,9.99-45.288A68.028,68.028,0,0,1-411.588-148.3q17.871-9.768,41.4-9.768a100.841,100.841,0,0,1,23.865,2.775,63.861,63.861,0,0,1,19.425,7.881l-13.32,26.418q-11.544-7.77-29.082-7.77-19.758,0-31.3,11.544t-12.432,33.522Q-399.267-97.458-374.625-97.458Zm-7.326,73.26q11.544,0,18.759-6.216t7.215-16.872q0-10.656-7.215-16.983T-382.4-70.6q-11.766,0-19.314,6.549a21.193,21.193,0,0,0-7.548,16.761,21.138,21.138,0,0,0,7.326,16.65Q-394.605-24.2-381.951-24.2Zm297.036-97.014q22.422,0,35.631,13.209t13.209,39.627V0H-70.707V-63.048q0-14.208-5.883-21.2t-16.761-6.993q-12.21,0-19.314,7.881t-7.1,23.421V0H-154.4V-63.048q0-28.194-22.644-28.194-11.988,0-19.092,7.881t-7.1,23.421V0h-34.632V-119.436H-204.8v13.764a43.712,43.712,0,0,1,16.317-11.544,54.92,54.92,0,0,1,21.2-4,51.348,51.348,0,0,1,22.866,4.995,40.494,40.494,0,0,1,16.428,14.541,48.991,48.991,0,0,1,18.537-14.43A58.482,58.482,0,0,1-84.915-121.212ZM-5-119.436H29.637V0H-5Zm17.316-16.65q-9.546,0-15.54-5.55A18,18,0,0,1-9.213-155.4a18,18,0,0,1,5.994-13.764q5.994-5.55,15.54-5.55t15.54,5.328a17.083,17.083,0,0,1,5.994,13.32,18.851,18.851,0,0,1-5.994,14.319Q21.867-136.086,12.321-136.086Zm49.506-28.638H96.459V0H61.827Zm66.822,0h34.632V0H128.649Zm66.822,45.288H230.1V0H195.471Zm17.316-16.65q-9.546,0-15.54-5.55a18,18,0,0,1-5.994-13.764,18,18,0,0,1,5.994-13.764q5.994-5.55,15.54-5.55t15.54,5.328a17.083,17.083,0,0,1,5.994,13.32,18.851,18.851,0,0,1-5.994,14.319Q222.333-136.086,212.787-136.086ZM319.125,1.776q-18.87,0-33.855-7.881a58.587,58.587,0,0,1-23.421-21.867,60.251,60.251,0,0,1-8.436-31.746,60.251,60.251,0,0,1,8.436-31.746,58.587,58.587,0,0,1,23.421-21.867q14.985-7.881,33.855-7.881t33.744,7.881a58.77,58.77,0,0,1,23.31,21.867,60.251,60.251,0,0,1,8.436,31.746,60.251,60.251,0,0,1-8.436,31.746,58.77,58.77,0,0,1-23.31,21.867Q338,1.776,319.125,1.776Zm0-28.416q13.32,0,21.867-8.991t8.547-24.087q0-15.1-8.547-24.087T319.125-92.8q-13.32,0-21.978,8.991t-8.658,24.087q0,15.1,8.658,24.087T319.125-26.64ZM480.3-121.212q22.2,0,35.853,13.32T529.8-68.376V0H495.171V-63.048q0-14.208-6.216-21.2t-17.982-6.993q-13.1,0-20.868,8.1t-7.77,24.087V0H407.7V-119.436h33.078v13.986a45.926,45.926,0,0,1,17.094-11.655A59.558,59.558,0,0,1,480.3-121.212Z" transform="translate(543.567 174.714)"/></svg>