<svg xmlns="http://www.w3.org/2000/svg" viewBox="0 0 970.14 192.252"><defs><style>.a{fill:#1e1e8d;opacity:0.07;}</style></defs><path class="a" d="M81.252-92.13q20.424,3.33,31.3,15.207t10.878,29.415a46.42,46.42,0,0,1-7.1,24.975Q109.224-11.1,94.683-4.218T59.052,2.664a122.224,122.224,0,0,1-32.3-4.329Q10.878-5.994-.222-13.986L13.764-41.514A67.759,67.759,0,0,0,34.3-31.191a79.139,79.139,0,0,0,23.865,3.663q13.542,0,21.312-5.217a16.761,16.761,0,0,0,7.77-14.763q0-19.092-29.082-19.092H41.736V-90.354L73.7-126.54H7.548V-155.4h108.78v23.31ZM246.42-81.7q11.544,5.772,17.649,15.1a38.418,38.418,0,0,1,6.105,21.534,40.367,40.367,0,0,1-8.214,25.2Q253.746-9.1,238.872-3.219t-34.41,5.883q-19.536,0-34.3-5.883T147.3-19.869a40.736,40.736,0,0,1-8.1-25.2A38.418,38.418,0,0,1,145.3-66.6a44.279,44.279,0,0,1,17.427-15.1,37.92,37.92,0,0,1-13.32-13.431,36.5,36.5,0,0,1-4.662-18.537,37.932,37.932,0,0,1,7.548-23.532q7.548-9.99,21.09-15.429t31.08-5.439q17.76,0,31.413,5.439t21.2,15.429a37.932,37.932,0,0,1,7.548,23.532,36.5,36.5,0,0,1-4.662,18.537A37.406,37.406,0,0,1,246.42-81.7Zm-41.958-49.95q-10.878,0-17.427,5.217t-6.549,14.319q0,8.88,6.438,13.986t17.538,5.106q11.1,0,17.76-5.106a16.664,16.664,0,0,0,6.66-13.986q0-9.1-6.66-14.319T204.462-131.646Zm0,107.892q13.542,0,21.423-6.105a19.592,19.592,0,0,0,7.881-16.317,19.294,19.294,0,0,0-7.881-16.206Q218-68.376,204.462-68.376q-13.32,0-21.09,5.994a19.392,19.392,0,0,0-7.77,16.206q0,10.434,7.77,16.428T204.462-23.754ZM309.468-41.292q9.324,0,15.318,5.883T330.78-19.98a36.492,36.492,0,0,1-1.11,8.88,100.275,100.275,0,0,1-4.884,13.32L312.132,34.188H290.154l9.768-35.3a18.245,18.245,0,0,1-8.769-7.215,21.039,21.039,0,0,1-3.219-11.655q0-9.546,6.105-15.429A21.336,21.336,0,0,1,309.468-41.292ZM410.7,2.664q-19.314,0-34.41-9.546T352.647-34.521Q344.1-52.614,344.1-77.7t8.547-43.179q8.547-18.093,23.643-27.639t34.41-9.546q19.314,0,34.41,9.546t23.643,27.639Q477.3-102.786,477.3-77.7t-8.547,43.179Q460.206-16.428,445.11-6.882T410.7,2.664Zm0-30.414q14.208,0,22.311-12.21t8.1-37.74q0-25.53-8.1-37.74T410.7-127.65q-13.986,0-22.089,12.21t-8.1,37.74q0,25.53,8.1,37.74T410.7-27.75ZM561.438,2.664q-19.314,0-34.41-9.546T503.385-34.521q-8.547-18.093-8.547-43.179t8.547-43.179q8.547-18.093,23.643-27.639t34.41-9.546q19.314,0,34.41,9.546t23.643,27.639q8.547,18.093,8.547,43.179t-8.547,43.179q-8.547,18.093-23.643,27.639T561.438,2.664Zm0-30.414q14.208,0,22.311-12.21t8.1-37.74q0-25.53-8.1-37.74t-22.311-12.21q-13.986,0-22.089,12.21t-8.1,37.74q0,25.53,8.1,37.74T561.438-27.75ZM712.176,2.664q-19.314,0-34.41-9.546T654.123-34.521q-8.547-18.093-8.547-43.179t8.547-43.179q8.547-18.093,23.643-27.639t34.41-9.546q19.314,0,34.41,9.546t23.643,27.639q8.547,18.093,8.547,43.179t-8.547,43.179q-8.547,18.093-23.643,27.639T712.176,2.664Zm0-30.414q14.208,0,22.311-12.21t8.1-37.74q0-25.53-8.1-37.74t-22.311-12.21q-13.986,0-22.089,12.21t-8.1,37.74q0,25.53,8.1,37.74T712.176-27.75ZM969.918-64.158H931.29v37.74H902.652v-37.74H864.246V-91.242h38.406v-37.74H931.29v37.74h38.628Z" transform="translate(0.222 158.064)"/></svg>