<svg xmlns="http://www.w3.org/2000/svg" viewBox="0 0 471.614 160.004"><defs><style>.a{fill:#fff;opacity:0.1;}</style></defs><path class="a" d="M-128.18-81.328q11.492,5.746,17.57,15.028a38.245,38.245,0,0,1,6.077,21.437A40.185,40.185,0,0,1-112.71-19.78Q-120.887-9.061-135.694-3.2t-34.255,5.857q-19.448,0-34.145-5.857T-226.857-19.78a40.552,40.552,0,0,1-8.066-25.084A38.245,38.245,0,0,1-228.846-66.3,44.08,44.08,0,0,1-211.5-81.328,37.749,37.749,0,0,1-224.757-94.7a36.333,36.333,0,0,1-4.641-18.453,37.761,37.761,0,0,1,7.514-23.426q7.514-9.945,20.995-15.36t30.94-5.414q17.68,0,31.271,5.414t21.106,15.36a37.761,37.761,0,0,1,7.514,23.426A36.333,36.333,0,0,1-114.7-94.7,37.238,37.238,0,0,1-128.18-81.328Zm-41.769-49.725q-10.829,0-17.349,5.194t-6.52,14.255q0,8.84,6.409,13.923t17.459,5.083q11.05,0,17.68-5.083a16.589,16.589,0,0,0,6.63-13.923q0-9.061-6.63-14.255T-169.949-131.053Zm0,107.406q13.481,0,21.326-6.078a19.5,19.5,0,0,0,7.846-16.243A19.207,19.207,0,0,0-148.623-62.1q-7.845-5.967-21.326-5.967-13.26,0-21,5.967a19.3,19.3,0,0,0-7.735,16.133q0,10.387,7.735,16.354T-169.949-23.647Zm223.431-8.84H28.288V0H-6.63V-32.487H-89.947V-56.576l72.93-98.124h37.57L-47.073-61.659H-5.525V-90.61H28.288v28.951H53.482Zm39.78-38.675q-17.017,0-27.736-11.6T54.808-113.815q0-19.448,10.719-31.05t27.736-11.6q17.017,0,27.625,11.6t10.608,31.05q0,19.448-10.608,31.051T93.262-71.162ZM185.419-154.7h26.3L106.08,0h-26.3ZM93.262-89.284a13.649,13.649,0,0,0,11.823-6.188q4.31-6.188,4.31-18.343t-4.31-18.343a13.649,13.649,0,0,0-11.823-6.188,13.662,13.662,0,0,0-11.713,6.3q-4.42,6.3-4.42,18.232t4.42,18.233A13.662,13.662,0,0,0,93.262-89.284ZM198.237,1.768a37.939,37.939,0,0,1-19.779-5.194,35.182,35.182,0,0,1-13.592-14.918A49.778,49.778,0,0,1,160-40.885a49.779,49.779,0,0,1,4.862-22.542,35.182,35.182,0,0,1,13.592-14.918,37.939,37.939,0,0,1,19.779-5.193q17.017,0,27.735,11.6t10.719,31.05q0,19.448-10.719,31.051T198.237,1.768Zm0-18.122a13.583,13.583,0,0,0,11.824-6.3q4.309-6.3,4.309-18.233t-4.309-18.233a13.583,13.583,0,0,0-11.824-6.3,13.728,13.728,0,0,0-11.713,6.188q-4.42,6.188-4.42,18.343t4.42,18.343A13.728,13.728,0,0,0,198.237-16.354Z" transform="translate(234.923 157.352)"/></svg>