<svg xmlns="http://www.w3.org/2000/svg" xmlns:xlink="http://www.w3.org/1999/xlink" viewBox="0 0 51 51"><defs><style>.a{clip-path:url(#a);}.b{fill:#fff;}.c{fill:#333;}.d{fill:#c6c6c6;opacity:0.2;}.e{fill:#3c3c3b;}.f{fill:#04a2c6;}</style><clipPath id="a"><rect width="51" height="51"/></clipPath></defs><g class="a"><rect class="b" width="51" height="51"/><g transform="translate(7.322 1.426)"><g transform="translate(0 0)"><path class="c" d="M1042.294,158.035h-29.429a.95.95,0,0,1-.944-.955V117.754a.95.95,0,0,1,.944-.955h6.153v1.133h-5.964V156.9h29.05v-38.97h-6.565V116.8h6.755a.95.95,0,0,1,.944.955v39.327A.95.95,0,0,1,1042.294,158.035Z" transform="translate(-1011.921 -113.961)"/><path class="c" d="M1042.59,175.554H1021.1a.567.567,0,0,1,0-1.133h21.494a.567.567,0,0,1,0,1.133Z" transform="translate(-1015.651 -138.93)"/><path class="c" d="M1041.017,118.652h-16.49a.567.567,0,0,1-.567-.567V114.1a2.309,2.309,0,0,1,2.307-2.306h9.16l3.859.037a2.308,2.308,0,0,1,2.3,2.307v3.951a.567.567,0,0,1-.569.567Zm-15.923-1.133h15.357v-3.385a1.174,1.174,0,0,0-1.173-1.174l-3.861-.037h-9.152a1.174,1.174,0,0,0-1.174,1.173Z" transform="translate(-1017.138 -111.79)"/><path class="d" d="M1040.413,148.217v-1.332a2.663,2.663,0,0,0-2.663-2.663h-5.327a2.663,2.663,0,0,0-2.663,2.663v1.332Z" transform="translate(-1019.651 -125.843)"/><circle class="d" cx="2.664" cy="2.664" r="2.664" transform="translate(12.772 10.384)"/><path class="c" d="M1036.46,168.533H1021.1a.567.567,0,0,1,0-1.133h15.361a.567.567,0,0,1,0,1.133Z" transform="translate(-1015.653 -135.888)"/><path class="c" d="M1042.59,161.354H1021.1a.567.567,0,0,1,0-1.133h21.494a.567.567,0,0,1,0,1.133Z" transform="translate(-1015.651 -132.777)"/><g transform="translate(20.356 31.77)"><circle class="b" cx="7.432" cy="7.432" r="7.432" transform="translate(0.57 0.567)"/><path class="c" d="M1055.843,183.853a8,8,0,1,1,8-8,8,8,0,0,1-8,8Zm0-14.864a6.866,6.866,0,1,0,6.865,6.865A6.866,6.866,0,0,0,1055.843,168.989Z" transform="translate(-1047.843 -167.855)"/></g><path class="e" d="M1041.106,147.79h-10.659a.567.567,0,0,1-.567-.567v-1.332a3.234,3.234,0,0,1,3.23-3.23h5.327a3.234,3.234,0,0,1,3.23,3.23v1.332A.567.567,0,0,1,1041.106,147.79Zm-10.09-1.133h9.523v-.766a2.1,2.1,0,0,0-2.1-2.1h-5.327a2.1,2.1,0,0,0-2.1,2.1Z" transform="translate(-1019.703 -125.167)"/><path class="e" d="M1037.81,135.018a3.23,3.23,0,1,1,3.23-3.23A3.23,3.23,0,0,1,1037.81,135.018Zm0-5.327a2.1,2.1,0,1,0,2.1,2.1,2.1,2.1,0,0,0-2.1-2.1Z" transform="translate(-1021.74 -119.056)"/><path class="c" d="M1058.677,182.631a.567.567,0,0,1-.382-.148l-2.21-2.025a.567.567,0,0,1,.766-.836l1.781,1.633,3.858-4.42a.567.567,0,0,1,.854.746l-4.24,4.855a.566.566,0,0,1-.4.193Z" transform="translate(-1030.979 -139.892)"/><path class="f" d="M1034.01,195.752" transform="translate(-1021.493 -148.174)"/></g></g></g></svg>