<svg xmlns="http://www.w3.org/2000/svg" viewBox="0 0 38.055 27.257"><defs><style>.a{fill:#333;}</style></defs><g transform="translate(-6.472 -11.873)"><g transform="translate(6.473 11.873)"><path class="a" d="M938.672,157.482H905.152a2.267,2.267,0,0,1-2.267-2.267V132.492a2.267,2.267,0,0,1,2.267-2.267h33.521a2.267,2.267,0,0,1,2.267,2.267v22.723A2.267,2.267,0,0,1,938.672,157.482Zm-33.521-26.123a1.133,1.133,0,0,0-1.133,1.133v22.723a1.133,1.133,0,0,0,1.133,1.133h33.521a1.133,1.133,0,0,0,1.133-1.133V132.492a1.133,1.133,0,0,0-1.133-1.133Z" transform="translate(-902.885 -130.225)"/><path class="a" d="M922.012,149.538a2.6,2.6,0,0,1-1.8-.749L903.392,132.7a.567.567,0,0,1,.784-.819l16.818,16.093a1.417,1.417,0,0,0,2.035,0l16.818-16.093a.567.567,0,1,1,.784.819l-16.818,16.09a2.6,2.6,0,0,1-1.8.749Z" transform="translate(-903.029 -130.874)"/><path class="a" d="M904.156,167.048a.567.567,0,0,1-.39-.978L916.612,153.9a.567.567,0,1,1,.779.822l-12.846,12.167A.567.567,0,0,1,904.156,167.048Z" transform="translate(-903.19 -140.413)"/><path class="a" d="M958.175,166.237a.562.562,0,0,1-.389-.156l-12.516-11.852a.567.567,0,0,1,.779-.823l12.516,11.853a.567.567,0,0,1-.39.979Z" transform="translate(-921.175 -140.203)"/></g></g></svg>