<svg xmlns="http://www.w3.org/2000/svg" viewBox="0 0 50 50"><defs><style>.a{fill:#fff;}.b{fill:#1d1d1b;}</style></defs><rect class="a" width="50" height="50"/><g transform="translate(5.375 7.53)"><path class="b" d="M1443.7,157.677a.692.692,0,0,0,.857-.156l18.659-22.1a.8.8,0,0,0-.611-1.319h-5.227l3.517-10.208a.8.8,0,0,0-.758-1.064h-12.107a.8.8,0,0,0-.792.667L1444.4,140.2a.8.8,0,0,0,.792.936h3.312l-.06.182-5.065,15.55a.677.677,0,0,0,.317.81Zm5.792-16.453a.8.8,0,0,0-.763-1.051h-3.343l2.778-16.383h11.746L1456.391,134a.8.8,0,0,0,.758,1.064h5.1l-17.514,20.745Z" transform="translate(-1433.274 -122.827)"/><path class="b" d="M1487.226,126.311l-5.073,3.762a.483.483,0,0,0-.1.675.5.5,0,0,0,.673.1l5.074-3.762a.483.483,0,0,0,.1-.674A.5.5,0,0,0,1487.226,126.311Z" transform="translate(-1450.435 -124.336)"/><path class="b" d="M1484.158,165.6l-5.778-2.544a.489.489,0,0,0-.192-.039.482.482,0,0,0-.2.922l5.778,2.543a.5.5,0,0,0,.635-.247.481.481,0,0,0-.247-.636Z" transform="translate(-1448.545 -140.689)"/><path class="b" d="M1431.585,145.793a.483.483,0,0,0-.471-.493l-5.4-.133h0a.466.466,0,0,0-.333.123.493.493,0,0,0-.158.347.483.483,0,0,0,.47.493l5.4.133h.014A.479.479,0,0,0,1431.585,145.793Z" transform="translate(-1425.217 -132.756)"/><path class="b" d="M1432.769,157.925l-4.927,2.948a.481.481,0,0,0,.493.826l4.927-2.948a.473.473,0,0,0,.222-.3h0a.473.473,0,0,0-.055-.364.485.485,0,0,0-.415-.234.479.479,0,0,0-.246.068Z" transform="translate(-1426.278 -138.396)"/><path class="b" d="M1431.286,126.419a.482.482,0,0,0-.817.354h0a.477.477,0,0,0,.146.338l3.811,3.684a.481.481,0,0,0,.333.129h.008a.477.477,0,0,0,.328-.822Z" transform="translate(-1427.551 -124.363)"/><path class="b" d="M1490.447,146.886l-5.278-.3a.476.476,0,0,0-.322.118.489.489,0,0,0-.153.333.483.483,0,0,0,.453.508l5.243.3a.482.482,0,1,0,.056-.962Z" transform="translate(-1451.651 -133.385)"/></g></svg>