<svg xmlns="http://www.w3.org/2000/svg" viewBox="0 0 212.391 31.5"><defs><style>.a{opacity:0.85;}.b{fill:#fff;}.c{fill:none;stroke:#fff;stroke-miterlimit:10;}</style></defs><g class="a" transform="translate(15.283 0.567)"><circle class="b" cx="2.333" cy="2.333" r="2.333" transform="translate(9.333 26.266)"/><circle class="b" cx="2.333" cy="2.333" r="2.333" transform="translate(0 26.266)"/><circle class="b" cx="2.333" cy="2.333" r="2.333" transform="translate(18.668 26.267)"/><rect class="b" width="2.162" height="2.162" transform="translate(45.001 20.735)"/><rect class="b" width="2.162" height="2.163" transform="translate(73.889 20.743)"/><path class="b" d="M90.18,26.133c-4.241,0-6.875-3.06-6.875-7.986s2.637-7.986,6.875-7.986a6.1,6.1,0,0,1,5.155,2.4l.093.1L94.11,13.869l-.1-.107a4.541,4.541,0,0,0-3.832-1.89,4.469,4.469,0,0,0-3.948,1.97,6.946,6.946,0,0,0-1.024,4.3,6.942,6.942,0,0,0,1.024,4.3,4.466,4.466,0,0,0,3.945,1.971,4.606,4.606,0,0,0,3.832-1.89l.1-.105,1.32,1.209-.093.105A6.1,6.1,0,0,1,90.18,26.133Z" transform="translate(-35.62 -3.045)"/><path class="b" d="M106.852,26.135a5.93,5.93,0,0,1-4.357-1.726c-1.725-1.725-1.946-4.253-1.946-6.262s.221-4.535,1.946-6.262a6.364,6.364,0,0,1,8.713,0c1.726,1.726,1.948,4.253,1.948,6.262s-.221,4.535-1.948,6.262a5.93,5.93,0,0,1-4.356,1.726Zm0-14.261a4.207,4.207,0,0,0-3.076,1.261c-1.22,1.222-1.324,3.228-1.324,5.013s.1,3.791,1.324,5.013a4.384,4.384,0,0,0,6.153,0c1.221-1.221,1.325-3.228,1.325-5.013s-.1-3.791-1.325-5.013a4.207,4.207,0,0,0-3.076-1.261Z" transform="translate(-39.83 -3.048)"/><path class="b" d="M127.926,26.2a5.757,5.757,0,0,1-4.165-1.5,5.82,5.82,0,0,1-1.63-4.358V10.414h1.9v9.638c0,2.9,1.413,4.432,4.082,4.432,2.695,0,4.178-1.574,4.178-4.432V10.414H134.2V26.006h-1.9V24.419A5.82,5.82,0,0,1,127.926,26.2Z" transform="translate(-45.097 -3.109)"/><path class="b" d="M153.746,23.647H151.4l-5.21-8.321-3.335,3.848v4.472h-1.9V.75h1.9V16.46l7.385-8.4h2.443L147.5,13.927Z" transform="translate(-49.695 -0.75)"/></g><path class="b" d="M4.089,25.517H0V8.563H4.089v1.1a5.712,5.712,0,0,1,3.8-1.285A5.9,5.9,0,0,1,11.547,9.7l.351.272L9,13.42l-.322-.244a3.107,3.107,0,0,0-1.872-.708,2.511,2.511,0,0,0-1.986.8,3.067,3.067,0,0,0-.733,2.145V25.517Z" transform="translate(0 -2.044)"/><path class="b" d="M23.173,25.693a6.98,6.98,0,0,1-5.8-2.479A9.6,9.6,0,0,1,15.6,17.073a10.423,10.423,0,0,1,1.6-5.989,6.29,6.29,0,0,1,5.464-2.726,6.754,6.754,0,0,1,5.07,2.085,7.163,7.163,0,0,1,1.993,5.14v3.095H19.706a3.379,3.379,0,0,0,.881,2.184,3.285,3.285,0,0,0,2.519.933,4.35,4.35,0,0,0,3.225-1.429l.278-.283,2.978,2.536-.281.324A7.773,7.773,0,0,1,23.173,25.693ZM19.716,15.155H25.6a3.585,3.585,0,0,0-.756-1.937,2.658,2.658,0,0,0-2.183-.959,2.646,2.646,0,0,0-2.153.9,3.506,3.506,0,0,0-.8,2Z" transform="translate(-3.807 -2.039)"/><path class="b" d="M44.723,25.693a6.977,6.977,0,0,1-5.794-2.479,9.6,9.6,0,0,1-1.777-6.141,10.415,10.415,0,0,1,1.6-5.989,6.29,6.29,0,0,1,5.465-2.725,6.758,6.758,0,0,1,5.071,2.085,7.167,7.167,0,0,1,1.992,5.14v3.095H41.255a3.4,3.4,0,0,0,.884,2.182,3.29,3.29,0,0,0,2.519.933,4.355,4.355,0,0,0,3.223-1.429l.277-.283,2.978,2.536-.28.324a7.776,7.776,0,0,1-6.135,2.751ZM41.268,15.156h5.888a3.578,3.578,0,0,0-.756-1.937,3,3,0,0,0-4.335-.061,3.506,3.506,0,0,0-.8,2Z" transform="translate(-9.068 -2.039)"/><path class="b" d="M64.641,23.654A5.669,5.669,0,0,1,59.985,21.4a6.4,6.4,0,0,1-1.134-3.168c-.065-.529-.1-1.593-.1-3.258,0-1.643.032-2.7.1-3.228a6.387,6.387,0,0,1,1.134-3.159A5.669,5.669,0,0,1,64.644,6.32a6.036,6.036,0,0,1,3.735,1.4V0h4.09V23.464H68.375V22.342a5.772,5.772,0,0,1-3.735,1.312Zm.983-13.244a2.306,2.306,0,0,0-2.375,1.333,8.9,8.9,0,0,0-.41,3.228,8.89,8.89,0,0,0,.41,3.228,2.721,2.721,0,0,0,4.716,0,9.249,9.249,0,0,0,.407-3.224,8.953,8.953,0,0,0-.412-3.2,2.308,2.308,0,0,0-2.336-1.36Z" transform="translate(-14.344)"/><path class="b" d="M185.077,17.724h1.317v1.749c0,.432-.039.787-.039.787h.039a3.37,3.37,0,0,1,3.125-2.633,2.668,2.668,0,0,1,.529.059V19a3.326,3.326,0,0,0-.491-.04,3.173,3.173,0,0,0-2.872,2.556,6.508,6.508,0,0,0-.275,1.925v4.167h-1.337V17.724Z" transform="translate(-45.182 -4.303)"/><path class="b" d="M197.882,17.443c2.732,0,4.127,2.1,4.127,4.559,0,.237-.039.688-.039.688h-7.587a3.723,3.723,0,0,0,3.832,3.911,4.6,4.6,0,0,0,3.008-1.2l.609,1.022a5.664,5.664,0,0,1-3.655,1.376,5,5,0,0,1-5.169-5.169A4.826,4.826,0,0,1,197.882,17.443Zm2.771,4.147c-.076-2.063-1.337-3.023-2.811-3.023a3.352,3.352,0,0,0-3.4,3.023h6.211Z" transform="translate(-47.119 -4.258)"/><path class="b" d="M212.312,17.442a4.866,4.866,0,0,1,3.616,1.415l-.688,1a4.186,4.186,0,0,0-2.889-1.2,3.791,3.791,0,0,0-3.855,3.97,3.834,3.834,0,0,0,3.891,3.97,4.355,4.355,0,0,0,3.164-1.4l.61,1.042a5.28,5.28,0,0,1-3.855,1.553,5.012,5.012,0,0,1-5.188-5.169,5.052,5.052,0,0,1,5.194-5.188Z" transform="translate(-50.564 -4.257)"/><path class="b" d="M222.05,17.724h1.316v1.749c0,.432-.039.787-.039.787h.039a3.37,3.37,0,0,1,3.126-2.633,2.668,2.668,0,0,1,.529.059V19a3.346,3.346,0,0,0-.491-.04,3.174,3.174,0,0,0-2.872,2.556,6.522,6.522,0,0,0-.275,1.925v4.167h-1.336V17.724Z" transform="translate(-54.208 -4.303)"/><path class="b" d="M230.864,17.755H232.2v5.937c0,1.552.237,2.927,2.142,2.927,2.26,0,3.656-1.984,3.656-4.126V17.755h1.336v9.886h-1.3V26.167c0-.432.039-.786.039-.786h-.039a4.225,4.225,0,0,1-3.872,2.494c-2.319,0-3.3-1.258-3.3-3.832V17.754Z" transform="translate(-56.362 -4.334)"/><path class="b" d="M246.023,12.556h1.4v1.67h-1.4Zm.039,3.931H247.4v9.885h-1.337V16.486Z" transform="translate(-60.062 -3.065)"/><path class="b" d="M251.921,18.112h-1.3V16.991h1.317v-2.85h1.316v2.85h2.476v1.12h-2.476v4.913c0,2.319,1.474,2.615,2.221,2.615a2.257,2.257,0,0,0,.454-.04v1.2a3.459,3.459,0,0,1-.57.04c-1.14,0-3.439-.373-3.439-3.676v-5.05Z" transform="translate(-61.186 -3.452)"/><path class="b" d="M264.259,17.443c2.732,0,4.127,2.1,4.127,4.559,0,.237-.039.688-.039.688h-7.586a3.723,3.723,0,0,0,3.832,3.911,4.6,4.6,0,0,0,3.007-1.2l.61,1.022a5.669,5.669,0,0,1-3.655,1.376,5,5,0,0,1-5.169-5.169A4.826,4.826,0,0,1,264.259,17.443Zm2.771,4.147c-.076-2.063-1.336-3.023-2.81-3.023a3.352,3.352,0,0,0-3.4,3.023Z" transform="translate(-63.324 -4.258)"/><path class="b" d="M274.413,17.724h1.316v1.749c0,.432-.039.787-.039.787h.039a3.37,3.37,0,0,1,3.126-2.633,2.668,2.668,0,0,1,.529.059V19a3.345,3.345,0,0,0-.491-.04,3.174,3.174,0,0,0-2.872,2.556,6.521,6.521,0,0,0-.275,1.925v4.167h-1.336V17.724Z" transform="translate(-66.992 -4.303)"/><line class="c" y2="24.356" transform="translate(129.16 4.989)"/></svg>